# xmcd CD database file
#
# Track frame offsets:
#	150
#	6042
#	26597
#	47030
#	69232
#	91885
#	116277
#	142617
#	166442
#	187130
#	210237
#	234740
#
# Disc length: 3207 seconds
#
# Revision: 0
# Processed by: cddbd v1.5PL3 Copyright (c) Steve Scherf et al.
# Submitted via: CDex 1.51
#
DISCID=910c850c
DTITLE=La'cryma Christi - DEEP SPACE SYNDICATE
DYEAR=2003
DGENRE=Rock
TTITLE0=intro
TTITLE1=Mystical Glider(ALBUM MIX)
TTITLE2=GROOVE WEAPON(ALBUM MIX)
TTITLE3=DEEP SPACE SYNDICATE
TTITLE4=Vampire Circus
TTITLE5=surrealism
TTITLE6=Simply Red
TTITLE7=raggle-taggle-revolver
TTITLE8=HIRAMEKI
TTITLE9=HAVEN
TTITLE10=REVERSE
TTITLE11=Bonus track
EXTD=YEAR: 2003
EXTT0=
EXTT1=
EXTT2=
EXTT3=
EXTT4=
EXTT5=
EXTT6=
EXTT7=
EXTT8=
EXTT9=
EXTT10=
EXTT11=
PLAYORDER=
